<svg xmlns="http://www.w3.org/2000/svg" viewBox="0 0 64 64">
  <circle cx="32" cy="32" r="24" fill="#0D47A1"/>
  <path d="M20 32c0-6.627 5.373-12 12-12s12 5.373 12 12-5.373 12-12 12-12-5.373-12-12z" fill="#1565C0"/>
  <path d="M14 32s-4 0-6 2 1 4 3 3 3-5 3-5zm36 0s4 0 6 2-1 4-3 3-3-5-3-5z" fill="#0B3C91"/>
  <path d="M30 44c-2 4-6 6-8 5s-1-5 2-7l6 2zm4 0c2 4 6 6 8 5s1-5-2-7l-6 2z" fill="#0B3C91"/>
  <text x="32" y="40" text-anchor="middle" fill="#E3F2FD" font-size="24" font-family="Arial, sans-serif" font-weight="bold">DL</text>
</svg>
