<svg xmlns="http://www.w3.org/2000/svg" xmlns:xlink="http://www.w3.org/1999/xlink" version="1.1" x="0px" y="0px" viewBox="0 0 100 125" enable-background="new 0 0 100 100" xml:space="preserve"><g><g><path fill-rule="evenodd" clip-rule="evenodd" d="M49,3.9c-24.8,0-45,20.2-45,45c0,24.8,20.2,45,45,45s45-20.2,45-45    C94,24.1,73.8,3.9,49,3.9z M56.8,82.3L56.8,82.3L56.8,82.3l0.8,3.2l-0.4-0.1l-0.8-0.5l-0.6-0.2l-0.3,0l-0.4-0.2l-0.3-0.3l0-0.2    v-0.1l0.5-0.3l0.1-0.2l0.3-0.1L56,83l-0.1-0.3l-0.4,0L55.1,83l-0.2,0.3l-0.2,0l-0.3-0.4l0-0.4l-0.1-0.2l0.3-0.3l0-0.2l-0.3,0    L54,81.6l0.2-0.3l0.2,0.1l0.3,0.2l0.1-0.1l0.3-0.3l0-0.2l-0.1-0.3l0.1-0.3l0.2,0.1l0.3,0.2l0.1-0.1l0.5-0.2L56.8,82.3z M53.9,83.7    l0.1-0.3l0-0.3l0.2,0.1l0.1,0.4l0.2,0.3l0,0.1l0.1,0.2l-0.2,0.2l0.4,0.3l-0.1,0.2l-0.1-0.1l-0.3-0.1L54,84.4v-0.2l0.1-0.2    L53.9,83.7z M42.8,67.6l0.3,0.1l0,0.2L43,68l-0.3,0l-0.5-0.5l0-0.3l0.4-0.2l0.1-0.3l0.2-0.2l0.1-0.3l0.2,0l-0.1-0.3l-0.1,0    l-0.2-0.4l0-0.2l0.2-0.1l0.2,0.1l0.6,0l0.3-0.1l0.1,0.1v0.5l-0.2,0.1L44.1,66l0,0.1l0.2,0l0.3-0.2l0.4-0.1l0.1,0L45.1,66l0,0.3    L45,66.8L44.9,67l0.1,0.2l0.1-0.3l0.2-0.1l0-0.6l0.1-0.2l-0.2-0.1l0-0.4l0.2-0.5l0.2-0.3l-0.1-0.1l0-0.2l0.1-0.2l-0.1-0.4l0-0.3    h0.2l0.4-0.3l0.2-0.4l0-0.5l-0.1-0.2l-0.3,0l0-0.3l-0.2-0.2l-0.3,0l-0.2-0.2l0-0.2l0.2-0.3l0.1-0.4l0.1-0.3l-0.4-0.2l0-0.2    l0.3-0.3l-0.1-0.1l0-0.2l0.3-0.3l-0.3-0.3l0-0.4l0.1-0.1l0.2-0.1l-0.1-0.2l-0.3-0.2l0-0.2l0.1-0.2l0.2,0.1l0.1,0.3l0.2,0.2    l0.1-0.1l-0.2-0.2l0-0.6l0-0.3l-0.2,0.1l-0.3-0.1v-0.2l0.4-0.3l0.2-0.3l-0.2,0l-0.1,0.1l-0.3-0.3l-0.3,0l-0.1,0.1l0,0.5l-0.5,0.1    l-0.5-0.2L43.8,56l-0.2-0.2L43.1,55L43,54.8l0.1-0.1l0.1-0.2L43,54.3l0.2-0.2l-0.1-0.3l0.2-0.7L43,53l-0.1-0.3l0.1-0.3l0.2,0    l0.1,0.1l0.1-0.2l-0.1-0.2l0.1-0.1l0.1-0.7v-0.6l-0.2-0.2l-0.1-0.2l-0.5-0.9l0.1-0.4l0-0.4l-0.4-0.3l-0.2-0.3l0-0.5l-0.1-0.4    l0-0.2l0.2-0.1l0.2,0.2l0.2,0l0.2-0.3l0-0.3l-0.1-0.3l0-0.2l0.1-0.2v-0.3l0.2-0.2l0-0.3l0-0.5l0.2-0.3l-0.1-0.2l0-0.2l0.2-0.2    l0-0.4l0.1-0.1l0-0.3l0.1-0.3l0-0.5v-0.3l0.2-0.2l0.1-0.4l-0.1-0.2v-0.1l0.2-0.5l0.3-0.2l0.2-0.3l0-0.3l-0.4-0.5l-0.1-0.2l0.1-0.3    l0-0.3l-0.1-0.3l0-0.2l0.1-0.4l0-0.6L44,36l0-0.3l0.2-0.2V35l-0.4-1l0-0.4l-0.1-0.4l0-0.4l0.2-0.1l0.2-0.3l-0.2-0.3l0.1-0.4    l0.2-0.2L44,31.3L44,30.8l-0.3-0.5V30l0.3-0.6l0.1-0.2l-0.1-0.5l0.2-0.3l0-0.4l0.3-0.4v-0.2l-0.1-0.2v-0.5l0.2-0.3l0-0.8l0.1-0.4    l-0.3-0.6v-0.4l0.3-0.4l0.1-0.4l0-0.5L44.3,22l0-1.8l0.2-0.2l-0.1-0.1l-0.2,0.2l-0.1-0.2l0-0.7l0.2-0.2l0.2-0.1v-0.3l-0.1-1.2    l0.1-0.2l0.1-0.2v-0.9l-0.2-0.5L44.2,15l-0.1-0.6l0.2-0.2l0.1-0.3v-0.5l-0.3-1.3L44,11.6l0-0.4l0-0.5l-0.1-0.1l0.4-0.2l0.4-0.2    l0.2,0l0.3-0.2l0.1-0.3L45,9.5l0.1-0.3l0.2-0.3L45.6,9l0,0.4L46,9.7l0.2,0.2l0,0.3l-0.1,0.3l0.1,0.2l0.1,0.6l0.3,0.4l0.8,0.6    l0.1,0.3L47.2,13l0.1,0.3l-0.4,0.9l0.2,0.3l0.8,0.8l1.2,3.3h0.5l0.1-0.2l0.3,0l0.2,0.5l-0.4,1.9l-2,1.1l-0.1,0.4l0.4,0.3l0.1,0.3    l-0.2,0.4l0.1,0.6l0.4,0.5v0.4L48.1,25L48,25.3l0.2,0.2l0.1,0.2l0,0.5l0.2,0.2l-0.3,0.3l-0.3,0.2l-0.4,0.4L47,28.4l-0.3,0.4    l-0.1,1.3l-0.2,0.2l0,1.1l0.3,0.6l0,0.7L46.4,33l0,0.8l-0.5,0.2l-0.1,0.6l0.2,0.8l0.3,0.4l0.1,0.3l0.4,0.6l0.3,0.5l0.2,1l0.2,0.2    l0.1,1.3l-0.1,0.8l-0.3,0.1L47,41.5l0.1,0.7l-0.4,0.6l0.2,0.2l0.3,0.6l0.1,0.6l-0.4,0.4l-0.4,0.7l0,1.2v0.5l-0.1,0.7l1,2l-0.2,0.3    L46.8,50l-0.1,0.9l-0.6,0.8l0.1,0.6l0.3,0.5l-0.1,1.3l0.1,1.1l0.1,0.8l0.3,0.2l0.2,0.3L46.9,57l-0.4,0.2l0.1,1.3l0.2,0.5l0.5,0.2    l0,0.6l0,0.5l0.3,0.7l0.2,0.8l0.3,0.1l0.3-0.2l0.2,0.1l0,0.4l-0.4,0.4l-0.8,0l-0.1,0.3l0.2,0.2l0.1-0.1H48l0.6,0.4l0.3,0.6l0,0.4    l-0.4,0.4l0,0.3l0.2,0.4l0.1,0.9l0.2,0.7l-0.3,0.3l-0.1,0.4l0.3,0.8L48.7,69l-0.1,0.8l0.2,0.7l0.2,0.9l-0.2,0.9l-0.6,0.6l-0.4,0.5    l-0.2,1.5l0.1,0.5l0.7,1.5l0.3,0l0.3-0.3l0.5-0.3l0.4,0v0.4l0.1,1l0.4,0.3l0.2,0.6l0.3,0.7l0.8,0.1l0.3,0.2l1.2-0.2l2.2,0l0.1,0.1    l0.4,0.1l0.5,0.4l-0.1,0L56,80l-0.4-0.3l-0.4,0.1L55,80l0,0.4l-0.1,0.1h-0.3l-0.2,0.1L54,81.1l-0.4,0.2l0,0.2l0.1,0.3l0,0.5    l-0.1,0.4l0,0.2l0,0.2l0.2,0.5l-0.2,0.4l-0.2,0.2l-0.2-0.1l-0.2,0l-0.3-0.2L52.1,84l-0.5-0.5l-0.2-0.3l0.1-0.2l0.2,0l0.1,0l0-0.2    l0.2-0.1l0.1,0.1l0,0.4L52,83.3l0,0.1l0.3-0.1l0.2-0.2l-0.1-0.2v-0.3l0.3-0.3l0.1-0.2l0.2-0.3l0.2-0.1l0-0.1l-0.2,0l-0.2-0.1    l-0.1-0.1l-0.2,0.1L52,82l-0.3,0.2l-0.4,0.1l0.3,0.3l0,0.1l-0.2,0.1L51.1,83l0.1,0.3l-0.1,0.2l-0.1,0l-0.4-0.3L50.2,83v-0.1    l0.1-0.2l-0.1-0.1l0-0.1l0.1-0.1l0.1-0.2l0-0.2l0.2-0.2l0.2,0l0.1,0l0.5-0.5l0.2-0.1l0.2,0.2l0.2,0l0.1-0.2l0.2-0.1l0-0.1l-0.3,0    l-0.3,0l-0.3-0.1L51,81l-0.1,0.2l-0.2-0.1l-0.1-0.2L50.5,81l-0.4-0.1L50,80.9l0,0.2l-0.2,0.1l-0.1,0.1l0.2,0l0.1-0.1l0.1,0.3    l-0.1,0.3l0.1,0.3l-0.1,0.2l-0.2,0.1l-0.5-0.3l-0.4,0L49,82l0.2-0.2l0.2-0.1v-0.1l-0.3-0.1l-0.2-0.1L49,81.6l-0.2,0l-0.1-0.1    l0.1-0.2l-0.1-0.2l-0.1-0.3l0-0.4l-0.3-0.2l0.3-0.1H49l0.3-0.2h0.2l0.1,0.3l0.1,0.1l0.1-0.3l-0.1-0.2l0-0.3l0.1-0.2l0.2,0.2    l0.2,0.5l-0.1,0.4l0.2-0.2l0-0.2l-0.2-0.4l0-0.3l0.2-0.2l-0.1-0.4l-0.5-0.3l-0.5-0.2L49,78.3l0,0.1l0.6,0l0.3,0.2l0.1,0.3l-0.3,0    l-0.1-0.1l-0.5-0.2h-0.3v0.1l0.4,0.1l0.2,0.1l0,0.2l-0.2,0.2l-0.1,0.3l-0.2-0.3l0-0.3L48.6,79l0.1,0.3l-0.1,0.2l0.2,0.4l-0.2,0    l-0.3-0.3l-0.1-0.2L48,79.1l-0.1,0l-0.3-0.4l0.1-0.2l0.2,0l0.1,0.1l0.2,0L48,78.3l0-0.3l-0.2,0.2l-0.2,0l-0.3-0.3v-0.2h-0.2    l-0.2-0.1l0.2-0.3l0.3-0.1l0.1-0.2l0-0.3L47.3,77l-0.1-0.2l-0.1-0.3l0.1,0l0-0.2l-0.3-0.2L46.4,76l-0.5-0.3l0-0.2l0.1-0.3l0.2-0.1    v-0.3l0.1-0.3l0-0.2l0.3-0.3l0.4-0.1l0.1-0.1l-0.2,0l-0.3-0.2l0-0.2l0.2-0.7l0.2,0l-0.1-0.1l-0.2,0.2l-0.2,0.6V74l-0.3-0.1    l-0.2-0.3l0-0.4L45.8,73l-0.2-0.8l0-0.2l0.2,0l0.1-0.2l0-0.1l0-0.2l0.3-0.2l0-0.2l-0.2,0.1L45.6,71l-0.1-0.3l-0.3-0.2l-0.1-0.2    l0.1-0.2l0.5-0.1l0.2,0.2l0.1-0.1l0.3,0l0.1-0.1l-0.1-0.1l0.1-0.2l-0.3,0.1l-0.2,0l-0.2-0.2l-0.4,0.2L45,69.8l-0.1-0.2l-0.3-0.2    l0-0.3l0.2,0l0.1,0.2l0.3,0.1l0-0.1L45,69l-0.1-0.2l0.1-0.2l0.2-0.1l-0.1-0.2l0.1-0.2l0.2,0l-0.2-0.2l-0.4-0.2l-0.1-0.2l-0.2-0.1    l-0.2,0.2l-0.4,0l-0.3-0.2l-0.1-0.4L43.4,67l-0.4,0l-0.2,0.3L42.8,67.6z M43,56.8l0-0.2l0.2-0.2l0.4,0l0.3,0.1l0.3,0.4l0,0.5    l0.1,0.1l0,0.3l-0.4-0.1l0.4,0.3l0.1,0.2l0,0.1L44.1,58l-0.2,0l0,0.2l0.4,0.4l-0.1,0.1l0.4,0.3l-0.1,0.1l-0.3-0.1L44,59.3l0,0.3    l0,0.1l-0.6,0.1l-0.4-0.2l0.2-0.4l-0.1-1L43,57.9l-0.1-0.1l-0.1-0.2l0.1-0.3l0.2-0.1l0-0.3L43,56.8z M45.1,61.9L45,61.8l0.1-0.1    l0.3,0.2L45.1,61.9z M45.6,62l0.3,0.1l0.1,0.2l0.3,0.3l-0.2,0.3L46,63.1l-0.2,0l-0.2-0.1l-0.2,0l-0.2,0.3l0-0.4l-0.1-0.3l0.2-0.5    L45.6,62z M45.1,61.1L45,60.9l0.3-0.2V61L45.1,61.1z M44.9,57.6l-0.3-0.2l0.2-0.1l0.2,0.2L44.9,57.6z M44.7,64.5l-0.2-0.1L44.4,64    l-0.2-0.1l0.3-0.2h0.4l0,0.5L44.7,64.5z M44.8,64.7l-0.2,0.2l-0.2-0.2L44.8,64.7z M43.5,62.6l0-0.3l-0.1-0.2l0.3,0l0.2,0.3l-0.3,0    L43.5,62.6z M43.7,65.1l-0.2,0l0-0.3l0.1,0L43.7,65.1z M43.9,63.5l0.4-0.1l0.2,0l0,0.3l-0.4,0L43.9,63.5z M44.3,64.3l0,0.3    L44,64.3L44.3,64.3z M44.5,62.5l-0.3-0.3l0.3-0.1V62.5z M43.9,61l-0.2-0.2l0.1-0.1l0.4,0.1L43.9,61z M44.1,61.4L44,61.6l-0.2-0.2    l0.1-0.1L44.1,61.4z M43.8,61.6l0.2,0.2l0,0.1l-0.3,0.1l-0.2,0l-0.1-0.2l0.1-0.2L43.8,61.6z M43.8,62.8l0.7,0l-0.2,0.2L43.9,63    l-0.1,0.1c0,0-0.1-0.1-0.1-0.1L43.8,62.8z M43.9,64.6l0.1,0.1l0.3,0.1l0.1,0.3l-0.3,0.1l-0.3-0.4L43.9,64.6z M44.6,62.7l0.1-0.4    l0.1,0.4L44.6,62.7z M44.7,61l0,0.3l-0.2,0.1l0-0.2L44.3,61l0.2-0.1L44.7,61z M43.1,60.4l0.2,0.2l-0.4,0.2l-0.2-0.2l0.1-0.1H43.1z     M43.3,62.6l-0.2,0.2L43,62.6l0.2-0.2L43.3,62.6z M42.7,62.8l0.2,0.2l-0.1,0.2L42.4,63l0-0.2H42.7z M48,79.7l-0.4-0.2l-0.2-0.2    l0-0.5l0.1,0l0.2,0.4l0.3,0.3l0.1,0.2L48,79.7z M48.1,80.2l-0.1,0L47.7,80l0.1-0.1L48,80L48.1,80.2z M47.7,80.2l0.5,0.4l0,0.2    l-0.1,0l-0.4-0.4l-0.1-0.2L47.7,80.2z M47.9,81.1l0.2,0l0.4-0.1l0.1,0.3l-0.2,0.3l-0.1-0.1l-0.2-0.1l-0.1-0.2l-0.3,0l-0.1-0.1    L47.9,81.1z M46.4,76.7l-0.3-0.1l-0.3-0.4l0-0.1l0.1,0l0.2,0.2l0.2,0l0.3,0.5l0.1,0.4L46.4,76.7z M46.7,77.4l-0.1,0.2l-0.3,0    l-0.4-0.4l-0.1-0.4l0.2,0l0.4,0.2L46.7,77.4z M44.7,71l-0.1,0.1l-0.4-0.6l-0.3-0.3l0.1-0.2l0.3,0l0.3-0.2l0,0.5l0.3,0.1l0,0.4    l0.3,0.2l0.2,0.6l-0.4,0l-0.3,0l-0.1-0.4l0.2-0.2L44.7,71z M43.4,70.5l0.1-0.1l0.3,0.1l0.4,0.7l0.3,0.4l0,0.4l-0.1,0.2l-0.3-0.2    L44,71.5l0-0.1l-0.2-0.2l-0.3-0.1l-0.1-0.4L43.4,70.5z M43.7,71.9l-0.2-0.1l0-0.5l0.1,0l0.2,0.1l0.1,0.3L43.9,72l-0.2,0L43.7,71.9    z M43.8,72.3l0.2-0.2l0.1,0.1l0.4,0.2l0.1,0.3l-0.2,0.1l-0.3,0.5L44,73.2l0-0.3L43.8,72.3z M44.5,74.5l-0.2,0.2l-0.2-0.2l0.1-0.2    L44,74.1l0.4-0.2l0.2,0.3L44.5,74.5z M44.4,73.5l0.3-0.1l0.2-0.2l0-0.2l-0.1,0.2l-0.1,0l0-0.2l0.1-0.3l-0.2-0.2l0-0.4l0.2-0.2h0.5    l0.2,0.2l0.2,0.7l0.2,0.4l0,0.6L45.8,74l0.2,0.5l0,0.5l-0.2,0.2L45.5,75l-0.1-0.4l-0.1-0.3l-0.1,0.3l-0.2,0.1l-0.3-0.3l-0.1-0.4    L44.4,73.5z M45.1,76.5l-0.2,0.1v-0.3h0.4L45.1,76.5z M45.3,76.1l-0.1,0L45,75.8l-0.2-0.2l0.1-0.2l0-0.2l0.1-0.1l0.2,0.1l0.4,0.1    l-0.1,0.3l0,0.3L45.3,76.1z M45.6,76.4l0.1,0.2v0.3L45.6,77l-0.1-0.4L45.6,76.4z M45.5,78.4l0.1-0.1l0.2-0.3l-0.2-0.3l0.2-0.1    l0.2,0.2l0.2,0l0.5,0.3l0,0.2l-0.3,0l0,0.1l-0.3,0l-0.5,0.1L45.5,78.4z M46.5,79.5l-0.2,0.1l0.2,0.3l-0.2,0l-0.2-0.1l-0.1-0.2    l0.1-0.2l0.1-0.1l-0.1-0.1L46.2,79l0.3,0l0.1,0.2L46.5,79.5z M46.7,79.7L46.7,79.7l-0.1-0.3l0.1-0.2l0.1-0.1l0.1,0.2l0.2,0.2    l0,0.3l-0.2,0.1l-0.1,0L46.7,79.7z M47,80.6l-0.2,0.1l0-0.1l0.1-0.1l0-0.3l0.2-0.1l0.1,0.2L47,80.6z M47.2,79.5l0.3,0.2l0.1,0.2    l-0.1,0l-0.3-0.2L47.2,79.5z M48.3,83.6l0.1-0.1c0,0,0.2,0.2,0.2,0.2L48.3,83.6z M48.9,83.3h-0.3L48.5,83L48,82.8l-0.3,0l-0.2-0.4    L47.4,82l0.1-0.2l0.2,0.1l0.4,0.4l0.2,0.1l0.3,0l0.3,0.1l0.3,0.1h0.4l0.1,0.2l0.3,0.2l0.1,0l0.1,0.1l-0.1,0.1h-0.3l-0.3-0.1    L49,83.2L48.9,83.3z M50.9,85.1L50.7,85L50.6,85l0.2-0.1L51,85L50.9,85.1z M51.7,84.6l0,0.2L51.5,85l0.1,0.2l-0.2,0.1L51.1,85    l0-0.2l-0.2-0.1l-0.4,0.1l-0.2,0L50,84.3l-0.3-0.1L49.5,84l-0.3-0.2l0-0.2l0.1-0.1l0.3,0l0.2,0.2l0.2,0.1l0.3-0.1l0.4,0l0.5,0.3    l0.2,0.1l0.1,0.2l0.3-0.1l0.2,0.1l0.1,0.2l-0.2,0l-0.2,0.1L51.7,84.6z M52.2,85.2L52,85.4l-0.2,0.1l0-0.2l0.2-0.2l0.1,0L52.2,85.2    L52.2,85.2z M52.5,85.2l-0.2-0.3l-0.2-0.1l0-0.2l0.5,0l0.1-0.1l0.6,0.2l0.1,0.2l0.1-0.1l0.2,0l0.1,0.1L53.7,85l0.1,0.2l-0.2,0.2    l-0.3-0.1l-0.1-0.2l-0.1,0.1l-0.2-0.2l-0.3,0L52.5,85.2z M53.8,87.4l-0.2-0.2l0.3-0.1l0.1,0.1L53.8,87.4z M53.6,86.7l0.1-0.2    l0.2,0.1l0,0.2l-0.2,0L53.6,86.7z M55.2,86.9l0.2,0l0,0.1l-0.2,0.1l-0.2-0.1l-0.1,0l0,0.2l0.3,0.2l0.2,0.1l0,0.1h-0.2l-0.3-0.3    l-0.2-0.1l-0.2,0l-0.2-0.2l0.1-0.3l0.2-0.1l-0.2-0.1v-0.2l-0.1-0.1l-0.2,0.1l-0.3-0.2l-0.2-0.1l-0.1,0.1l-0.1,0.2l-0.3,0l-0.4-0.1    l-0.1-0.2l0.3-0.1l0.3,0.1l0-0.1l-0.1-0.1l0.1-0.1l0.6,0l0.2,0l0-0.2l0.1-0.1l0.3,0.2l0.1,0.2l0.1,0l0-0.1l0.1,0h0.2l0-0.1    l-0.7-0.3l-0.1-0.2l0.1-0.1l0.3,0.2l0.6,0.2l0.1,0.1l0.1-0.1l-0.1-0.1l0-0.1l0.4,0.1l0.8,0.3l0.6,0.2l0.3,0.2l0.2,0l0.2,0.6h-0.4    l0,0.2l-0.2,0.1L56,86.3l-0.3,0.1L55,86.8L55.2,86.9z M59.3,87.3l-0.4,0l-0.1-0.2l-0.1-0.3l-0.3,0L58.1,87h-0.2l-0.4,0.1l0.3,0.2    l0.1,0l0.4,0.1l0.1,0.1l-0.1,0.1l0.3,0.1l0.4,0.3v0.3l-0.1,0L58.5,88l-0.2-0.1L58,88.1l-0.2-0.2l-0.1-0.3l-0.4,0l0,0.2l0.3,0.1    l0,0.3l-0.1,0L56.9,88l-0.2,0.1l-0.1-0.2l-0.2-0.1l0.1-0.3l-0.2,0.2L56,87.6l0-0.1l0.3-0.1l0.5-0.2L56.5,87l-0.2,0.1l-0.2-0.2    l0.2-0.1h0.3l0.2,0l0.4,0.1l0.8-0.2l0.4-0.2l0.5,0l0.4,0l0.5,0l0.3,0.1l0.1,0.3l0.2,0.2l-0.2,0.2l-0.3,0.2l-0.2-0.2l-0.2-0.1    L59.3,87.3z M59.8,88.9l-0.1-0.1c0,0,0.2-0.1,0.2-0.1H60L59.8,88.9z M60.5,88.6l-0.2,0l-0.2-0.2l0.2-0.2L60.2,88l0.2,0.1l0,0.3    L60.5,88.6z"/></g></g><g display="none"><path display="inline" fill-rule="evenodd" clip-rule="evenodd" d="M58.7,91.1l-0.2-0.7l-0.2,0l-0.4-0.2l-0.7-0.2l-1-0.3l-0.4-0.2   l0,0.2l0.1,0.2l-0.1,0.1l-0.2-0.1L55,89.5l-0.3-0.2l-0.1,0.1l0.1,0.2l0.8,0.4l0,0.1h-0.2l-0.1,0l0,0.2l-0.1,0L55,90.2l-0.4-0.2   L54.5,90l0,0.2l-0.2,0l-0.6,0l-0.1,0.1l0.1,0.1l-0.1,0.1l-0.3-0.1l-0.4,0.1l0.1,0.2l0.4,0.1l0.3,0l0.1-0.2l0.1-0.1l0.2,0.1l0.4,0.2   l0.2-0.1l0.1,0.1v0.2l0.2,0.1l-0.3,0.1L54.6,92l0.2,0.2l0.2,0l0.2,0.1l0.3,0.3h0.2l0-0.1l-0.2-0.2l-0.4-0.2l-0.1-0.2l0.1,0l0.3,0.1   l0.2-0.2l0.1-0.2l-0.3-0.1l-0.2-0.1l0.8-0.3l0.3-0.2l1.5,0.4l0.2-0.1l0-0.2H58.7L58.7,91.1z M58.4,90.1L58,90l-0.9-0.6l-0.6-0.2   l-0.3,0L55.7,89l-0.3-0.3l-0.1-0.2v-0.2l0.6-0.3l0.1-0.2l0.4-0.1l0.3-0.4L56.5,87l-0.4,0l-0.5,0.3l-0.3,0.3l-0.3,0l-0.4-0.5l0-0.4   l-0.1-0.2l0.3-0.3l0.1-0.3l-0.3,0l-0.2-0.2l0.2-0.3l0.2,0.1l0.4,0.2l0.1-0.2l0.3-0.3l0.1-0.2l-0.1-0.3l0.2-0.3l0.3,0.1l0.3,0.3   l0.2-0.1l0.5-0.2l0.5,2.2l0,0.1l0.1,0L58.4,90.1L58.4,90.1z M56.9,83.7l-0.5-0.5L56,83.2L55.9,83l-2.5,0L52,83.3l-0.3-0.2L50.8,83   l-0.3-0.8l-0.2-0.7l-0.4-0.4l-0.1-1.1v-0.5l-0.4,0l-0.6,0.3l-0.3,0.4l-0.4,0l-0.8-1.7L47.1,78l0.2-1.7l0.4-0.6l0.7-0.7l0.2-1   l-0.2-1l-0.2-0.7l0.2-0.9l0.4-0.4l-0.4-0.9l0.1-0.4l0.3-0.3l-0.2-0.8l-0.1-1L48.1,67l0-0.4l0.5-0.4l0-0.4l-0.4-0.7l-0.6-0.4h-0.4   l-0.1,0.1l-0.2-0.2l0.1-0.3l0.9,0l0.4-0.5l0-0.5L48,63.1l-0.3,0.2l-0.4-0.1l-0.2-0.9l-0.4-0.8l0-0.5l0-0.6l-0.6-0.2l-0.2-0.6   L46,58.2l0.4-0.3l0.1-0.5l-0.2-0.4l-0.4-0.2L45.8,56l-0.1-1.2l0.1-1.4l-0.4-0.6l-0.1-0.7l0.7-0.9l0.1-1l0.5-0.2l0.3-0.3l-1.1-2.2   l0.1-0.7v-0.5l0-1.3l0.4-0.8l0.5-0.5l-0.1-0.7l-0.4-0.6L46.1,42l0.4-0.6l-0.1-0.8l0.3-0.8l0.4-0.1l0.1-0.9L47,37.3l-0.3-0.3   l-0.2-1.1l-0.3-0.6l-0.4-0.7l-0.1-0.4l-0.3-0.5l-0.2-0.9l0.1-0.7l0.5-0.2l0-0.9l0.3-0.4l0-0.8l-0.3-0.6L45.8,28l0.3-0.3l0.1-1.4   l0.4-0.5l0.5-1.3l0.5-0.5l0.4-0.2l0.3-0.3L48,23.3l0-0.5l-0.1-0.3l-0.2-0.2l0.1-0.4l0.3-0.3v-0.5l-0.4-0.5l-0.1-0.6l0.2-0.4   l-0.1-0.3L47.2,19l0.2-0.5l2.3-1.2l0.5-2.1l-0.3-0.5l-0.3,0.1l-0.1,0.2h-0.5l-1.4-3.7l-0.9-0.9l-0.3-0.4l0.5-1l-0.1-0.4L46.9,8   l-0.1-0.3L45.9,7l-0.3-0.4l-0.1-0.6l-0.1-0.2l0.1-0.4L45.5,5l-0.2-0.2l-0.4-0.3l0-0.5l-0.4-0.1l-0.2,0.3l-0.1,0.3l0.3,0.3l-0.1,0.3   L44,5.4l-0.2-0.1l-0.4,0.3l-0.5,0.2L43.1,6l0,0.5l0,0.4l0.1,0.5l0.3,1.4v0.5l-0.1,0.4L43.1,10l0.2,0.7l0.2,0.7l0.2,0.6v1l-0.1,0.3   l-0.1,0.2l0.1,1.3v0.3l-0.3,0.2l-0.3,0.2l0,0.8l0.1,0.2l0.2-0.2l0.2,0.1l-0.2,0.2l0,2l0.3,0.8l0.1,0.6l-0.1,0.5L43.4,21v0.5   l0.4,0.6l-0.1,0.4l0,1l-0.2,0.4v0.5l0.1,0.3v0.2l-0.3,0.5l0,0.5L43,26.1l0.1,0.6L43,27l-0.3,0.7V28l0.3,0.5l0.1,0.5l0.2,0.3   l-0.3,0.2L42.9,30l0.3,0.3l-0.3,0.3l-0.3,0.1l0,0.5l0.1,0.4l0,0.4l0.4,1.1v0.6L43,34.1l0,0.3l0.4,0.6l0,0.7l-0.1,0.5l0,0.2l0.1,0.3   l-0.1,0.3l-0.1,0.3l0.1,0.2l0.4,0.6l0.1,0.3l-0.2,0.3l-0.3,0.2l-0.3,0.5v0.2l0.2,0.2l-0.1,0.5l-0.2,0.2v0.3l-0.1,0.6l-0.2,0.3   l0,0.3l-0.1,0.2l0,0.5l-0.2,0.2l0,0.2l0.1,0.2l-0.2,0.3l0,0.5l0,0.3L42,44.6V45l-0.1,0.2l0,0.3l0.1,0.3l0,0.4l-0.2,0.3l-0.2,0   l-0.2-0.2l-0.3,0.1l0,0.2l0.1,0.4l0,0.6l0.3,0.4l0.4,0.3l0.1,0.4l-0.1,0.5l0.6,1l0.1,0.3l0.2,0.2v0.6l-0.2,0.8l-0.2,0.1l0.1,0.3   l-0.1,0.2l-0.1-0.1l-0.2,0l-0.1,0.3l0.1,0.4l0.2,0.2L42,54.5l0.1,0.3L41.9,55l0.2,0.2L42,55.4L42,55.6l0.1,0.2l0.6,0.9l0.2,0.2   l0.1,0.3l0.5,0.2l0.5-0.1l0-0.5l0.1-0.1l0.3,0l0.3,0.3l0.1-0.1l0.2,0L45,57.1l-0.4,0.4v0.2l0.3,0.1l0.2-0.1l0,0.3l0,0.7l0.2,0.2   L45.3,59l-0.2-0.2L45,58.5l-0.2-0.1l-0.1,0.2l0,0.2L45,59l0.1,0.2l-0.2,0.1l-0.2,0.1l0,0.5l0.3,0.3l-0.3,0.3l0,0.3l0.1,0.1   l-0.3,0.4l0.1,0.2l0.4,0.3L44.9,62l-0.1,0.5l-0.2,0.3l0,0.2l0.2,0.2l0.4,0l0.2,0.2l0,0.3l0.3,0.1l0.1,0.2l0,0.6L45.5,65L45,65.3   h-0.2l0,0.4l0.2,0.4l-0.1,0.2l0,0.2l0.2,0.1l-0.3,0.3l-0.2,0.6l0,0.4l0.2,0.1l-0.1,0.2l0,0.7l-0.3,0.1l-0.1,0.4l-0.1-0.2l0.1-0.2   l0.1-0.6l-0.1-0.3l0.1-0.2l-0.2-0.1l-0.5,0.2l-0.4,0.2l-0.2,0l0-0.2l0.3-0.1l0.2-0.2v-0.5l-0.1-0.1l-0.4,0.1l-0.7,0l-0.2-0.1   L42,67.4l0,0.2l0.2,0.4l0.1,0l0.1,0.3l-0.2,0l-0.1,0.4l-0.3,0.2l-0.1,0.3l-0.5,0.3l0,0.3l0.5,0.6l0.3,0l0.2-0.2l0-0.2l-0.3-0.1   l0-0.2l0.2-0.4l0.5,0l0.1-0.1l0.1,0.4l0.4,0.2l0.4,0l0.2-0.2l0.2,0.1l0.1,0.2l0.5,0.2l0.2,0.2l-0.2,0l-0.1,0.2l0.2,0.2L44.2,71   l-0.2,0.3l0.2,0.2l0.3,0.2l-0.1,0.1l-0.3-0.2L44,71.5l-0.2,0l0,0.3l0.3,0.3l0.1,0.3l0.5,0.1l0.5-0.3l0.2,0.2l0.2,0l0.3-0.1   l-0.1,0.2l0.1,0.1l-0.1,0.1l-0.3,0l-0.1,0.1L45,72.6l-0.6,0.2l-0.1,0.3l0.1,0.2l0.4,0.2l0.1,0.3l0.3,0.1l0.3-0.2l0,0.2l-0.3,0.3   l0,0.2l0.1,0.2l-0.1,0.2l-0.2,0l0,0.2l0.2,0.9l0.2,0.3l0,0.4l0.2,0.4l0.3,0.1v-0.6l0.2-0.7l0.3-0.2l0.1,0.2l-0.2,0l-0.2,0.8l0,0.2   l0.3,0.2l0.2,0l-0.1,0.1l-0.4,0.1l-0.3,0.3l0.1,0.2L45.6,78v0.3l-0.2,0.1l-0.2,0.3l0,0.2l0.5,0.4l0.7,0.2l0.3,0.2L46.8,80l-0.2,0   l0.1,0.4l0.1,0.2l0.3-0.3l0,0.3L47,80.7l-0.3,0.1l-0.2,0.3l0.2,0.1H47v0.2l0.3,0.3l0.2,0l0.2-0.2l0,0.4l0.1,0.4l-0.2,0l-0.2-0.1   l-0.2,0l-0.1,0.2l0.3,0.4l0.1,0l0.1,0.4l0.2,0.2l0.3,0.3l0.3,0l-0.2-0.5l0.1-0.2l-0.1-0.3l0.3,0.2l0.1,0.3l0.2,0.3l0.1-0.4l0.2-0.2   l0-0.2L49,82.6l-0.5-0.1v-0.2h0.3l0.6,0.2l0.1,0.1l0.4,0l-0.1-0.3l-0.4-0.2l-0.7,0l0-0.2l0.2-0.1l0.6,0.2l0.6,0.3l0.1,0.5L50,83.2   l0,0.3l0.2,0.5l0,0.3l-0.3,0.2l0.1-0.4l-0.3-0.6l-0.3-0.2l-0.2,0.2l0,0.3l0.2,0.2l-0.2,0.3l-0.1-0.2l-0.1-0.3H49L48.7,84h-0.4   l-0.4,0.1l0.3,0.2l0,0.5l0.2,0.3l0.1,0.2l-0.1,0.2l0.1,0.1l0.3,0l0.1-0.3l0.2,0.1l0.3,0.1v0.1L49,85.9l-0.3,0.2l0.1,0.2l0.5,0   l0.5,0.3l0.2-0.1l0.2-0.2L50,85.9l0.1-0.3L50,85.4l-0.1,0.1l-0.3,0l0.1-0.1l0.2-0.2l0-0.2l0.2-0.1l0.4,0.1l0.2-0.1l0.1,0.2l0.2,0.1   L51,85l0.4-0.1l0.3,0.1l0.4,0l0.3,0l0,0.1l-0.2,0.1L52,85.4l-0.2-0.1l-0.2-0.2l-0.2,0.1l-0.6,0.5l-0.1,0l-0.2,0L50.2,86l0.1,0.2   l-0.1,0.2L50,86.6l0,0.1l0.2,0.1l-0.1,0.2v0.2l0.6,0.2l0.4,0.3l0.1,0l0.1-0.2l-0.1-0.3l0.2-0.3l0.2-0.1l0-0.2l-0.3-0.3l0.5-0.1   l0.3-0.3l0.3-0.5l0.2-0.1l0.1,0.1l0.3,0.1l0.2,0l0,0.1L53,85.9l-0.2,0.3l-0.1,0.2l-0.3,0.3v0.4l0.1,0.3l-0.2,0.2L52,87.8l0-0.2   l0.2-0.1l0-0.5L52.1,87l-0.2,0.1l-0.1,0.2l-0.1,0l-0.2,0l-0.1,0.2l0.2,0.3l0.6,0.6l0.5,0.1l0.4,0.2l0.2,0l0.2,0.1l0.2-0.2l0.2-0.4   l-0.2-0.6l0.1-0.3l0-0.2l0.1-0.5l0-0.6l-0.1-0.4l0.1-0.3l0.5-0.3l0.4-0.5l0.3-0.1h0.4l0.2-0.2l0-0.5l0.2-0.2l0.4-0.1l0.5,0.3   L56.9,83.7L56.9,83.7L56.9,83.7z M60.7,93.8l0.2,0.1l0.3-0.3H61C61,93.7,60.7,93.8,60.7,93.8L60.7,93.8z M43.6,59.4l-0.4-0.2   l-0.2,0l0,0.2l0.4,0.4L43.3,60l0.4,0.4l-0.1,0.1l-0.4-0.1l-0.2,0.3l0,0.4l0,0.2l-0.6,0.1L42,61.1l0.2-0.4l-0.1-1.2L42,59l-0.1-0.1   l-0.1-0.2l0.1-0.3l0.2-0.2l0-0.3L42,57.7l0-0.2l0.3-0.3l0.4,0l0.3,0.2l0.3,0.5l0,0.5l0.1,0.1l0,0.4L43,58.8l0.5,0.3L43.6,59.4   L43.6,59.4L43.6,59.4z M43.8,58.5l0.3-0.1l0.2,0.2l-0.1,0.2L43.8,58.5L43.8,58.5z M41.6,62l0.1-0.2H42l0.2,0.2l-0.5,0.2L41.6,62   L41.6,62z M44.2,62.4l0.3-0.2v0.3l-0.2,0.2L44.2,62.4L44.2,62.4z M43.6,62.4l0.3,0.1l0,0.4L43.7,63l0-0.2l-0.2-0.2L43.6,62.4   L43.6,62.4z M42.8,62.3l0.1-0.2l0.5,0.1L43,62.5L42.8,62.3L42.8,62.3z M42.9,63l0.1-0.1l0.2,0.1l-0.1,0.2L42.9,63L42.9,63z    M42.4,63.5l0.1-0.3l0.3,0l0.2,0.2l0,0.2l-0.3,0.1l-0.2-0.1L42.4,63.5L42.4,63.5z M42.1,64.1l0.2,0.2l-0.2,0.2l-0.1-0.1L42.1,64.1   L42.1,64.1z M43.9,64l0.1,0.4l-0.3,0L43.9,64L43.9,64z M43.3,63.8l0.4-0.1v0.5L43.3,63.8L43.3,63.8z M42.5,66.8l0.2,0l0.1,0.3   l-0.2,0L42.5,66.8L42.5,66.8z M42.5,64.3l0-0.3l-0.1-0.2l0.4,0l0.2,0.4l-0.3,0.1L42.5,64.3L42.5,64.3z M41.7,65l-0.5-0.2l0-0.2h0.4   l0.2,0.2L41.7,65L41.7,65z M43.1,66.2l0.3,0l0,0.4L43.1,66.2L43.1,66.2z M43.6,66.7l0.4,0l-0.2,0.2L43.6,66.7L43.6,66.7z    M44.3,63.4l0.2-0.1l0.3,0.3l-0.4,0L44.3,63.4L44.3,63.4z M44.9,63.7l0.4,0.1l0.1,0.3l0.3,0.3l-0.2,0.3l-0.1,0.3L45,64.9l-0.2-0.1   l-0.2,0l-0.3,0.3l0-0.4l-0.1-0.3l0.2-0.6L44.9,63.7L44.9,63.7z M42.8,64.8l0.1-0.3l0.8,0l-0.2,0.2L43,64.8l-0.1,0.2   C42.9,64.9,42.8,64.8,42.8,64.8L42.8,64.8z M43.2,65.5L43,65.4l0.4-0.1l0.3,0l0,0.3L43.2,65.5L43.2,65.5z M43.3,65.8l0.3-0.2h0.4   l0,0.6l-0.2,0.3l-0.2-0.1l-0.1-0.4L43.3,65.8L43.3,65.8z M42.8,66.8l0.2-0.2l0.1,0.2l0.3,0.1l0.2,0.3l-0.4,0.1L42.8,66.8L42.8,66.8   z M43.8,74.1l0.2-0.2l-0.2-0.2l-0.1,0.1l-0.5-0.7L43,72.9l0.2-0.2l0.3,0l0.3-0.2l0,0.6l0.4,0.2l0,0.4l0.3,0.3l0.2,0.6l-0.4,0   l-0.4,0L43.8,74.1L43.8,74.1z M42.4,73.4l0-0.2l0.1-0.1l0.3,0.1l0.5,0.8l0.3,0.5l0,0.4L43.5,75l-0.3-0.2l-0.2-0.6l0-0.2l-0.2-0.2   l-0.4-0.1L42.4,73.4L42.4,73.4z M42.5,74l0.1,0l0.3,0.1l0.1,0.4l-0.1,0.3l-0.2,0l0-0.2l-0.2-0.2L42.5,74L42.5,74z M43.2,76.3   L43,76.2l0-0.3l-0.2-0.6l0.2-0.2l0.1,0.1l0.4,0.2l0.1,0.3l-0.2,0.1L43.2,76.3L43.2,76.3z M43.7,77.7l-0.2,0.2l-0.2-0.2l0.1-0.2   l-0.2-0.2l0.4-0.2l0.2,0.4L43.7,77.7L43.7,77.7z M44.6,77.5l-0.1,0.4l-0.2,0.1L44,77.8l-0.1-0.5l-0.4-0.8l0.4-0.1l0.3-0.2l0-0.3   l-0.2,0.2l-0.2,0L43.8,76l0.1-0.3l-0.2-0.2l0-0.4l0.2-0.2h0.5l0.2,0.2l0.2,0.8l0.2,0.4l0.1,0.7l-0.1,0.1l0.2,0.5l0,0.6L45,78.4   l-0.2-0.1l-0.1-0.4L44.6,77.5L44.6,77.5z M44.3,79.5l-0.1-0.3L44,79l0.1-0.2l0-0.2l0.1-0.1l0.2,0.1l0.4,0.1L44.7,79l0,0.3l-0.2,0.2   L44.3,79.5L44.3,79.5z M44.1,80v-0.3h0.4l-0.2,0.2L44.1,80L44.1,80z M44.9,79.8L45,80v0.3l-0.1,0.1l-0.1-0.4L44.9,79.8L44.9,79.8z    M45.1,79.6l0-0.1l0.2,0l0.3,0.2l0.2,0l0.3,0.5l0.1,0.4l-0.5-0.4l-0.3-0.1L45.1,79.6L45.1,79.6z M45.1,80.3l0.2,0l0.4,0.2l0.4,0.6   l-0.2,0.2l-0.3,0l-0.4-0.5L45.1,80.3L45.1,80.3z M45.5,82.1L45,82.3l-0.2-0.1L45,82l0.2-0.4L45,81.3l0.2-0.1l0.3,0.2l0.2,0l0.5,0.4   l0,0.2l-0.3,0l0,0.1L45.5,82.1L45.5,82.1z M46,83.7l-0.2,0l-0.2-0.1l-0.1-0.3l0.1-0.2l0.2-0.1l-0.1-0.1l-0.1-0.1l0.3,0l0.1,0.2   l0,0.4l-0.2,0.1L46,83.7L46,83.7z M46,83.1l0.1-0.2l0.1-0.1l0.2,0.2l0.2,0.2l0,0.3l-0.2,0.2l-0.2,0l0-0.2l-0.1-0.1L46,83.1L46,83.1   z M46.7,83.3l0.4,0.2l0.1,0.2l-0.1,0l-0.3-0.2L46.7,83.3L46.7,83.3z M46.5,84.6l-0.2,0.1l-0.1-0.1l0.1-0.1l0-0.4l0.2-0.1l0.1,0.2   L46.5,84.6L46.5,84.6z M47.6,83.6l-0.5-0.2l-0.2-0.2l0-0.6l0.2,0l0.2,0.5l0.3,0.3l0.1,0.2L47.6,83.6L47.6,83.6z M47.5,84.1   l-0.3-0.3l0.1-0.1l0.3,0.1l0.1,0.3L47.5,84.1L47.5,84.1z M47.7,84.9l-0.4-0.4l-0.1-0.2l0.1-0.1l0.6,0.5l0,0.3L47.7,84.9L47.7,84.9z    M48.1,85.7L48,85.7l-0.2-0.2l-0.1-0.2l-0.4,0l-0.1-0.1l0.3-0.1l0.3,0.1l0.5-0.1l0.1,0.4L48.1,85.7L48.1,85.7z M49.3,87.7l-0.5-0.2   l-0.2,0.1h-0.3l-0.2-0.3L47.6,87L47.2,87L47,86.5l-0.1-0.4L47,86l0.2,0.1l0.4,0.5l0.3,0.2l0.3,0l0.3,0.1l0.3,0.2h0.4l0.2,0.2   l0.4,0.3l0.2,0l0.1,0.1L50,87.8h-0.4L49.3,87.7L49.3,87.7z M48,87.8c0,0,0.2,0.2,0.2,0.2l-0.4-0.1L48,87.8L48,87.8z M50.7,89.5   l0.2,0.1l0.1-0.1l-0.2-0.2L50.7,89.5L50.7,89.5L50.7,89.5z M51.6,89.7l-0.3,0.1l-0.2-0.2l0-0.3l-0.2-0.1l-0.4,0.1l-0.3,0l-0.4-0.4   l-0.3-0.1l-0.1-0.3L49,88.2l0-0.2l0.1-0.2l0.3,0l0.2,0.2l0.2,0.1l0.3-0.1l0.4,0l0.5,0.4l0.2,0.1l0.1,0.2l0.4-0.1l0.3,0.1l0.1,0.3   l-0.3,0l-0.2,0.1l0.2,0.1l0,0.2l-0.3,0.3L51.6,89.7L51.6,89.7z M52.1,89.6l-0.2,0.3l0,0.2l0.2-0.1l0.2-0.3l0.1-0.1l-0.2-0.1   L52.1,89.6L52.1,89.6z M54.2,89.3l-0.1,0.3l0.1,0.2l-0.2,0.2l-0.3-0.1l-0.1-0.2l-0.2,0.2l-0.2-0.2l-0.3,0l-0.2,0.2l-0.2-0.3   l-0.2-0.1l0-0.2l0.5,0l0.1-0.1l0.7,0.2l0.2,0.2l0.2-0.2l0.2,0L54.2,89.3L54.2,89.3z M55.3,89.1l-0.4-0.3l0.2-0.2l-0.2-0.2l0-0.1   l-0.2-0.4l-0.1-0.4l-0.2-0.1l-0.1,0.4l-0.1,0.4l0.2,0.3l-0.1,0.2v0.3l0.3,0.2l0.4,0.1l0.1,0.1L55.3,89.1L55.3,89.1z M53.8,91.9   l0.3-0.1l0.2,0.1l-0.2,0.2L53.8,91.9L53.8,91.9z M54,91.6l-0.1-0.1l0.1-0.2l0.3,0.1l0,0.2L54,91.6L54,91.6z M61.4,93.6l-0.2-0.2   l0.2-0.3l-0.1-0.2l0.2,0.1l0.1,0.3l0,0.3L61.4,93.6L61.4,93.6z M56.7,91.7l0.3-0.1h0.3l0.2,0l0.4,0.1l0.9-0.2l0.5-0.2l0.6,0.1   l0.5,0l0.5,0l0.4,0.1l0.1,0.3l0.2,0.2L61.3,92L61,92.2l-0.2-0.2l-0.2-0.1l-0.4,0.2l-0.4,0l-0.2-0.2l-0.2-0.4l-0.3,0L59,91.8h-0.2   l-0.5,0.1l0.4,0.3l0.1,0l0.5,0.1l0.2,0.1l-0.1,0.1l0.3,0.1l0.4,0.3v0.3l-0.2,0l-0.4-0.4l-0.3-0.1L58.8,93l-0.3-0.2l-0.1-0.3l-0.4,0   l0,0.2l0.3,0.2l0,0.3l-0.2,0l-0.4-0.2L57.4,93l-0.1-0.2L57,92.7l0.1-0.3l-0.3,0.2l-0.3-0.2l0-0.2l0.3-0.2l0.5-0.2l-0.3-0.2   l-0.2,0.1L56.7,91.7z"/></g><text x="0" y="115" fill="#000000" font-size="5px" font-weight="bold" font-family="'Helvetica Neue', Helvetica, Arial-Unicode, Arial, Sans-serif">Created by Tom Walsh</text><text x="0" y="120" fill="#000000" font-size="5px" font-weight="bold" font-family="'Helvetica Neue', Helvetica, Arial-Unicode, Arial, Sans-serif">from the Noun Project</text></svg>